<svg version="1.2" xmlns="http://www.w3.org/2000/svg" viewBox="0 0 1440 367" width="1440" height="367">
	<style>
		.s0 { fill: #da251c } 
		.s1 { fill: #ffffff } 
	</style>
	<g id="Background">
		<path id="Path 0" class="s0" d="m0.59 1.5c-0.33 0.82-0.59 12.75-0.59 26.5 0 21.33 0.22 25.07 1.5 25.5 0.83 0.28 18.38 0.5 39 0.5h37.5v9c-56.96 0.02-74.51 0.25-75.75 0.51l-2.25 0.49v51l77.5 0.5 0.5 9.5c-58.13 0-75.56 0.11-76.25 0.25-0.95 0.19-1.31 6.46-1.5 26.5l-0.25 26.25 77.5 0.5 0.5 9.5-77.5 0.5-0.5 53.5 77.5 0.5 0.5 9.5-77.5 0.5v51l77.5 0.5v10h-78v52c3.49 0.81 327.38 0.92 722 0.77l717.5-0.27 0.5-52.5h-78v-10h78v-52h-78v-10h78v-54h-78l0.5-9.5 77.5-0.5c0-47.1-0.28-52.97-1.25-52.88-0.69 0.06-18.24 0.06-39 0l-37.75-0.12 0.5-9.5 77.5-0.5v-51c-3.49-0.75-21.04-0.98-41.25-0.99l-36.75-0.01v-9l77.5-0.5v-53c-1357.8-0.47-1438.39-0.33-1438.91 1z"/>
		<path id="Path 1" class="s1" d="m0.16 58.39c-0.15 5.33-0.05 5.59 2.09 5.12 1.24-0.26 18.79-0.49 39-0.5l36.75-0.01v-9c-58.13 0-75.6-0.27-76.34-0.61-1.03-0.46-1.38 0.71-1.5 5zm1400.59-4.64l-38.75 0.25v9c60.06 0.39 77.62 0.5 77.76 0.5 0.15 0 0.15-2.25 0-5l-0.26-5zm-1400.74 66.74c-0.01 4.75 0.23 5.45 1.74 5.09 0.96-0.24 18.51-0.46 39-0.5l37.25-0.08-0.5-9.5-77.48-0.52zm1362.49-4.83c-0.46 0.37-0.76 2.62-0.66 5l0.16 4.34c58.91 0.39 76.46 0.39 77.01 0.25 0.54-0.14 0.99-2.5 0.99-5.25v-5c-59.41 0-77.04 0.3-77.5 0.66zm-1362.49 67.58l-0.01 5.26 78-0.5-0.5-9.5-77.47-0.53zm1362.48-4.57c-0.45 0.37-0.75 2.62-0.66 5l0.16 4.34h78v-10c-59.41 0-77.04 0.3-77.5 0.66zm-1362.48 68.57l-0.02 5.27 78-0.5-0.5-9.5-77.47-0.53zm1361.99-0.24v5h78v-10h-78zm-1362 61.75v5.25h78v-10l-78-0.5zm1362 0.25v5h78v-10h-78zm-1117.5-260.95c-6.05 0.5-15.95 1.86-22 3.02-6.05 1.16-15.05 3.48-20 5.14-4.95 1.66-12.15 4.6-16 6.53-3.85 1.93-9.93 5.46-13.5 7.84-3.58 2.38-9.18 6.93-12.45 10.12-3.27 3.19-7.93 8.5-10.36 11.8-2.43 3.3-5.88 8.93-7.68 12.5-1.79 3.58-4.48 10.1-5.98 14.5-2.07 6.08-2.85 10.65-3.24 19-0.3 6.26-0.04 13.59 0.59 17 0.62 3.3 2.55 8.93 4.3 12.5 1.83 3.76 5.53 8.87 8.75 12.11 4.05 4.07 8.15 6.83 15.07 10.16 5.22 2.5 14.22 6.13 20 8.05 5.77 1.92 19.5 5.83 30.5 8.69 11 2.87 23.6 6.5 28 8.08 4.88 1.76 9.7 4.34 12.38 6.64 2.42 2.08 5 5.01 5.75 6.52 0.75 1.52 1.37 5.45 1.37 8.75 0 3.83-0.71 7.55-1.95 10.25-1.07 2.34-4.11 6.26-6.75 8.71-2.64 2.45-7.05 5.46-9.8 6.7-2.75 1.25-7.93 3-11.5 3.91-4.74 1.21-9.48 1.55-17.5 1.27-9.2-0.33-11.91-0.81-16.5-2.95-3.03-1.41-6.85-3.69-8.5-5.06-1.65-1.38-4.11-4.71-5.45-7.41-1.98-3.98-2.46-6.49-2.5-13.16l-0.05-8.25c-68.89-0.01-71.55 0.12-72.14 1.74-0.36 0.97-0.86 8.28-1.12 16.25-0.38 11.36-0.13 15.92 1.15 21 0.9 3.58 3.07 9.43 4.82 13 2.09 4.27 5.44 8.7 9.74 12.89 4.98 4.85 8.94 7.54 16.55 11.2 5.5 2.65 13.6 5.7 18 6.78 4.4 1.07 11.37 2.56 15.5 3.29 4.87 0.86 15.88 1.32 31.5 1.31 18.52-0.01 26.16-0.42 33.5-1.77 5.22-0.96 13.77-2.89 19-4.28 5.22-1.39 13.77-4.3 19-6.47 5.22-2.17 13.01-6.08 17.3-8.69 4.3-2.62 11.02-7.46 14.95-10.76 3.93-3.3 9.52-8.92 12.43-12.5 2.9-3.57 7.32-10.55 9.82-15.5 2.49-4.95 5.49-12.6 6.67-17 1.64-6.15 2.16-11.1 2.23-21.5 0.07-10.03-0.34-14.91-1.59-19-0.93-3.02-3.63-8.38-6-11.91-2.37-3.52-6.79-8.38-9.81-10.79-3.03-2.41-9.1-6.14-13.5-8.28-4.4-2.15-11.38-5-15.5-6.35-4.13-1.34-16.05-4.53-26.5-7.09-10.45-2.55-22.49-5.76-26.75-7.11-4.27-1.36-10.12-3.58-13-4.93-2.89-1.36-6.96-4.17-9.04-6.25-2.08-2.08-4.27-5.36-4.87-7.29-0.6-1.92-0.81-5.18-0.47-7.25 0.35-2.06 1.47-5.43 2.5-7.5 1.04-2.06 3.74-5.43 6-7.5 2.27-2.06 5.81-4.6 7.88-5.64 2.06-1.04 6.45-2.68 9.75-3.64 4.43-1.28 8.21-1.61 14.5-1.25 5.69 0.33 10.15 1.22 13.5 2.69 2.75 1.21 6.48 3.64 8.29 5.4 1.96 1.89 3.92 5.23 4.8 8.19 0.92 3.06 1.29 6.85 0.96 9.75l-0.55 4.75 72.35-0.5c1.28-4.65 2.1-9.93 2.65-14.75 0.67-5.89 0.66-11.11-0.03-16-0.64-4.55-2.35-10.04-4.59-14.75-2.49-5.2-5.39-9.26-9.48-13.25-4.36-4.24-8.59-7.03-16.15-10.65-5.64-2.69-13.85-5.82-18.25-6.94-4.4-1.13-11.38-2.5-15.5-3.06-4.13-0.56-13.58-1.22-21-1.48-7.43-0.26-18.45-0.06-24.5 0.43zm172.01 7.2c-0.29 1.24-12.73 59.28-27.66 128.97-14.92 69.7-27.07 127.41-26.99 128.25 0.12 1.37 10.99 1.53 99.64 1.53h99.5c0.76-4.26 3.01-14.95 5.49-26.5 2.48-11.55 4.51-21.78 4.51-22.75 0-1.64-3.65-1.75-62.5-1.75-49.15 0-62.58-0.26-62.86-1.25-0.19-0.68 2.17-13.06 5.25-27.49l5.61-26.25 116.88-0.51c8.08-37.97 10.24-49.33 10.02-49.75-0.22-0.41-26.28-0.75-57.9-0.75-50.45 0-57.5-0.18-57.5-1.5 0-0.82 2.29-12.41 5.09-25.75 3.54-16.82 5.61-24.63 6.75-25.51 1.3-0.99 15.18-1.27 63.91-1.25l62.25 0.01c0.76-4.26 3.01-14.95 5.49-26.5 2.48-11.55 4.51-21.56 4.51-22.25 0-0.99-20.57-1.25-99.49-1.25h-99.48zm232.1 39c-4.82 22.69-13.7 64.43-19.74 92.75-6.04 28.33-14.56 68.27-18.93 88.75-4.37 20.49-7.94 37.48-7.94 37.75 0 0.28 14.62 0.5 32.5 0.5h32.5c0.81-3.48 8.48-39.37 17.57-82 9.08-42.62 18.12-85.15 20.07-94.5 1.95-9.35 4.16-17.67 4.9-18.5 1.16-1.29 1.56-0.73 2.87 4 0.83 3.03 10.56 44.65 21.62 92.5 11.05 47.85 20.66 89.48 21.36 92.5l1.26 5.5c97.24 0.49 100.37 0.4 100.79-1.25 0.25-0.96 12.63-58.9 27.51-128.75 14.88-69.85 27.05-127.78 27.05-128.75 0-1.63-2.2-1.75-32-1.75-17.6 0-32.19 0.34-32.42 0.75-0.22 0.42-9.23 42.15-20.01 92.75-10.78 50.6-20.12 93.35-20.76 95l-1.15 3c-2.05-5.42-12.12-46.82-23.69-95.5-11.58-48.67-21.48-90.18-22.01-92.25l-0.96-3.75h-101.64zm393.63-40c-0.54 0.69-12.89 20.83-27.46 44.75-14.56 23.93-49.65 81.65-77.98 128.27-28.32 46.62-51.56 85.21-51.65 85.75-0.09 0.63 12.59 1 35.1 1.03 27.64 0.03 35.5-0.24 36.38-1.25 0.62-0.71 7.15-12.23 14.5-25.59l13.37-24.29c81.76 0.07 105.7 0.42 105.93 0.83 0.24 0.42 1.85 11.55 3.58 24.75 1.74 13.2 3.34 24.34 3.57 24.75 0.23 0.42 18.42 0.75 40.42 0.75 22 0 40.21-0.33 40.45-0.75 0.25-0.41-7.38-43.72-16.96-96.25-9.58-52.52-20.25-110.91-23.7-129.75l-6.29-34.25c-78.25 0-88.5 0.29-89.26 1.25zm219.77-0.5c0.01 0.42-12.36 58.8-27.48 129.75-15.13 70.95-27.17 129.34-26.77 129.75 0.41 0.4 16.67 0.63 36.14 0.5l35.41-0.25c5.13-24.02 11.59-54.28 17.66-82.75 6.07-28.46 15.99-75.03 22.05-103.5 6.06-28.46 12.07-56.47 13.36-62.25 1.29-5.77 2.18-10.83 1.98-11.25-0.2-0.41-16.56-0.75-36.36-0.75-19.8 0-35.99 0.34-35.99 0.75z"/>
		<path id="Path 2" class="s0" d="m1071.36 106.79c-0.58 0.39-13.5 23.77-28.71 51.96-15.21 28.19-27.42 51.7-27.15 52.25 0.32 0.64 12.67 1 34 1h33.5c-0.01-5.81-2.07-29.32-4.58-56-2.52-26.68-4.9-48.82-5.29-49.21-0.39-0.39-1.19-0.39-1.77 0z"/>
	</g>
</svg>